<svg version="1.1" id="Icons" xmlns="http://www.w3.org/2000/svg" viewBox="0 0 32 32" xml:space="preserve" width="800" height="800" fill="#000"><g id="SVGRepo_iconCarrier"><style>.st0{fill:none;stroke:#fff;stroke-width:2;stroke-linecap:round;stroke-linejoin:round;stroke-miterlimit:10}</style><path class="st0" d="m30.9 28.7-1.6-5.3c.2-.4.3-.9.3-1.4 0-2.2-1.8-4-4-4-1 0-1.9.4-2.6 1h-2.9c-.7-.6-1.6-1-2.6-1-2.2 0-4 1.8-4 4 0 .5.1 1 .3 1.4l-1.6 5.3c-.4 1.1.5 2.3 1.8 2.3.6 0 1.1-.3 1.4-.7l3.4-4.3h5.6l3.4 4.3c.3.4.9.7 1.4.7 1.2 0 2.1-1.2 1.7-2.3zM26 21h0M25 23h0"/><path class="st0" d="M16 18.2c1.8-1 3-3 3-5.2v0c0-1.1.9-2 2-2h0V8.7c0-2.8-2.1-5.4-4.9-5.7-2-.2-3.8.6-4.9 2.1-.8-.2-1.6-.1-2.6.6S7 7.7 7 9v3.8c0 2.2 1.2 4.3 3 5.4v0c0 2.3-1.6 4.2-3.8 4.8-2.6.7-4.5 2.8-5.1 5.4 0 .3.2.6.6.6H12"/></g></svg>